<svg width="32" height="32" viewBox="0 0 32 32" fill="none" xmlns="http://www.w3.org/2000/svg">
<path d="M15.9998 32.0001C24.8363 32.0001 31.9998 24.8367 31.9998 16.0001C31.9998 7.16355 24.8363 0.000102997 15.9998 0.000102997C7.1632 0.000102997 -0.000244141 7.16355 -0.000244141 16.0001C-0.000244141 24.8367 7.1632 32.0001 15.9998 32.0001Z" fill="#F7931A"/>
<path d="M23.189 14.02C23.503 11.924 21.906 10.797 19.724 10.045L20.432 7.20501L18.704 6.77501L18.014 9.54001C17.56 9.42601 17.094 9.32001 16.629 9.21401L17.324 6.43101L15.596 6.00001L14.888 8.83901C14.512 8.75301 14.142 8.66901 13.784 8.57901L13.786 8.57001L11.402 7.97501L10.942 9.82101C10.942 9.82101 12.225 10.115 12.198 10.133C12.898 10.308 13.024 10.771 13.003 11.139L12.197 14.374C12.245 14.386 12.307 14.404 12.377 14.431L12.194 14.386L11.064 18.918C10.978 19.13 10.761 19.449 10.271 19.328C10.289 19.353 9.01498 19.015 9.01498 19.015L8.15698 20.993L10.407 21.554C10.825 21.659 11.235 21.769 11.638 21.872L10.923 24.744L12.65 25.174L13.358 22.334C13.83 22.461 14.288 22.579 14.736 22.691L14.03 25.519L15.758 25.949L16.473 23.083C19.421 23.641 21.637 23.416 22.57 20.75C23.322 18.604 22.533 17.365 20.982 16.558C22.112 16.298 22.962 15.555 23.189 14.02V14.02ZM19.239 19.558C18.706 21.705 15.091 20.544 13.919 20.253L14.869 16.448C16.041 16.741 19.798 17.32 19.239 19.558ZM19.774 13.989C19.287 15.942 16.279 14.949 15.304 14.706L16.164 11.256C17.139 11.499 20.282 11.952 19.774 13.989Z" fill="white"/>
</svg>
