<svg width="48" height="48" viewBox="0 0 48 48" fill="none" xmlns="http://www.w3.org/2000/svg">
<g clip-path="url(#clip0_498_3468)">
<path d="M37.5469 0H10.4531C4.68003 0 0 4.68003 0 10.4531V37.5469C0 43.32 4.68003 48 10.4531 48H37.5469C43.32 48 48 43.32 48 37.5469V10.4531C48 4.68003 43.32 0 37.5469 0Z" fill="#00F0FF"/>
<path d="M22.1515 18.9206H31.1138L40.2823 28.0305C40.8787 28.6231 40.8818 29.587 40.2884 30.1826L28.5303 42.0001H19.2979L22.0891 39.2865L32.337 29.1032L22.2191 18.9197" fill="#1B1B1B"/>
<path d="M25.8359 29.0803H16.8736L7.70509 19.9703C7.10867 19.3777 7.10562 18.4139 7.69899 17.8182L19.4571 6H28.6895L25.8983 8.71358L15.6503 18.8969L25.7682 29.0803" fill="#1B1B1B"/>
</g>
<defs>
<clipPath id="clip0_498_3468">
<rect width="48" height="48" fill="white"/>
</clipPath>
</defs>
</svg>
