<svg width="48" height="48" viewBox="0 0 48 48" fill="none" xmlns="http://www.w3.org/2000/svg">
<path d="M41.2962 5.34845L26.3057 16.4822L29.0778 9.91342L41.2962 5.34845Z" fill="#E2761B" stroke="#E2761B" stroke-width="0.224299" stroke-linecap="round" stroke-linejoin="round"/>
<path d="M6.68934 5.34845L21.5594 16.5876L18.9229 9.91342L6.68934 5.34845ZM35.9021 31.1564L31.9097 37.2731L40.4521 39.6234L42.9078 31.292L35.9021 31.1564ZM5.10742 31.292L7.5481 39.6234L16.0905 37.2731L12.098 31.1564L5.10742 31.292Z" fill="#E4761B" stroke="#E4761B" stroke-width="0.224299" stroke-linecap="round" stroke-linejoin="round"/>
<path d="M15.6089 20.8211L13.2285 24.4219L21.7106 24.7985L21.4093 15.6836L15.6089 20.8211ZM32.3773 20.8211L26.5016 15.5782L26.3057 24.7985L34.7728 24.4219L32.3773 20.8211ZM16.091 37.2731L21.1833 34.7872L16.7841 31.3522L16.091 37.2731ZM26.8029 34.7872L31.9102 37.2731L31.2022 31.3522L26.8029 34.7872Z" fill="#E4761B" stroke="#E4761B" stroke-width="0.224299" stroke-linecap="round" stroke-linejoin="round"/>
<path d="M31.91 37.2731L26.8027 34.7872L27.2095 38.1168L27.1643 39.5179L31.91 37.2731ZM16.0908 37.2731L20.8366 39.5179L20.8065 38.1168L21.1831 34.7872L16.0908 37.2731Z" fill="#D7C1B3" stroke="#D7C1B3" stroke-width="0.224299" stroke-linecap="round" stroke-linejoin="round"/>
<path d="M20.9127 29.1525L16.6641 27.9021L19.6622 26.5311L20.9127 29.1525ZM27.0746 29.1525L28.3251 26.5311L31.3383 27.9021L27.0746 29.1525Z" fill="#233447" stroke="#233447" stroke-width="0.224299" stroke-linecap="round" stroke-linejoin="round"/>
<path d="M16.0901 37.2731L16.8133 31.1563L12.0977 31.2919L16.0901 37.2731ZM31.1862 31.1563L31.9093 37.2731L35.9018 31.2919L31.1862 31.1563ZM34.7719 24.4219L26.3048 24.7985L27.0882 29.1526L28.3387 26.5311L31.3519 27.9021L34.7719 24.4219ZM16.6626 27.9021L19.6758 26.5311L20.9112 29.1526L21.7097 24.7985L13.2276 24.4219L16.6626 27.9021Z" fill="#CD6116" stroke="#CD6116" stroke-width="0.224299" stroke-linecap="round" stroke-linejoin="round"/>
<path d="M13.2285 24.4219L16.7841 31.3522L16.6635 27.9021L13.2285 24.4219ZM31.3528 27.9021L31.2022 31.3522L34.7728 24.4219L31.3528 27.9021ZM21.7106 24.7985L20.9121 29.1526L21.9065 34.29L22.1325 27.5255L21.7106 24.7985ZM26.3057 24.7985L25.8989 27.5104L26.0797 34.29L27.0892 29.1526L26.3057 24.7985Z" fill="#E4751F" stroke="#E4751F" stroke-width="0.224299" stroke-linecap="round" stroke-linejoin="round"/>
<path d="M27.0897 29.1526L26.0803 34.29L26.8034 34.7872L31.2027 31.3522L31.3533 27.9021L27.0897 29.1526ZM16.6641 27.9021L16.7846 31.3522L21.1838 34.7872L21.907 34.29L20.9127 29.1526L16.6641 27.9021Z" fill="#F6851B" stroke="#F6851B" stroke-width="0.224299" stroke-linecap="round" stroke-linejoin="round"/>
<path d="M27.1643 39.5179L27.2095 38.1168L26.8328 37.7853H21.153L20.8065 38.1168L20.8366 39.5179L16.0908 37.2731L17.7481 38.629L21.1078 40.9642H26.878L30.2528 38.629L31.91 37.2731L27.1643 39.5179Z" fill="#C0AD9E" stroke="#C0AD9E" stroke-width="0.224299" stroke-linecap="round" stroke-linejoin="round"/>
<path d="M26.8029 34.7872L26.0797 34.29H21.9065L21.1833 34.7872L20.8066 38.1167L21.1532 37.7853H26.833L27.2097 38.1167L26.8029 34.7872Z" fill="#161616" stroke="#161616" stroke-width="0.224299" stroke-linecap="round" stroke-linejoin="round"/>
<path d="M41.9285 17.2053L43.2091 11.0584L41.2957 5.34845L26.8023 16.1055L32.3767 20.8211L40.2562 23.1262L42.0038 21.0923L41.2505 20.55L42.4558 19.4501L41.5217 18.727L42.727 17.808L41.9285 17.2053ZM4.79102 11.0584L6.07162 17.2053L5.25806 17.808L6.46333 18.727L5.54431 19.4501L6.74958 20.55L5.99629 21.0923L7.72887 23.1262L15.6083 20.8211L21.1827 16.1055L6.68932 5.34845L4.79102 11.0584Z" fill="#763D16" stroke="#763D16" stroke-width="0.224299" stroke-linecap="round" stroke-linejoin="round"/>
<path d="M40.2562 23.1261L32.3767 20.821L34.7722 24.4218L31.2016 31.3521L35.9021 31.2919H42.9078L40.2562 23.1261ZM15.6084 20.821L7.72889 23.1261L5.10742 31.2919H12.098L16.7835 31.3521L13.228 24.4218L15.6084 20.821ZM26.3052 24.7985L26.8023 16.1054L29.0924 9.91333H18.9229L21.1828 16.1054L21.7101 24.7985L21.8909 27.5404L21.9059 34.29H26.0792L26.1093 27.5404L26.3052 24.7985Z" fill="#F6851B" stroke="#F6851B" stroke-width="0.224299" stroke-linecap="round" stroke-linejoin="round"/>
</svg>
