<svg width="14" height="14" viewBox="0 0 14 14" fill="none" xmlns="http://www.w3.org/2000/svg">
<path d="M11.8395 5.7143L7.46452 10.0893C7.40355 10.1505 7.3311 10.199 7.25134 10.2321C7.17157 10.2653 7.08605 10.2823 6.99967 10.2823C6.9133 10.2823 6.82778 10.2653 6.74801 10.2321C6.66824 10.199 6.5958 10.1505 6.53483 10.0893L2.15983 5.7143C2.03655 5.59102 1.96729 5.42381 1.96729 5.24946C1.96729 5.07511 2.03655 4.9079 2.15983 4.78461C2.28311 4.66133 2.45032 4.59207 2.62467 4.59207C2.79902 4.59207 2.96623 4.66133 3.08952 4.78461L7.00022 8.69532L10.9109 4.78407C11.0342 4.66078 11.2014 4.59152 11.3758 4.59152C11.5501 4.59152 11.7173 4.66078 11.8406 4.78407C11.9639 4.90735 12.0332 5.07456 12.0332 5.24891C12.0332 5.42326 11.9639 5.59047 11.8406 5.71375L11.8395 5.7143Z" fill="#747474"/>
</svg>
