<svg width="48" height="48" viewBox="0 0 48 48" fill="none" xmlns="http://www.w3.org/2000/svg">
<path d="M14.0774 17.25H0.320148C0.234775 17.25 0.153366 17.2814 0.0933004 17.3378C0.064064 17.3648 0.0406931 17.3975 0.024642 17.4339C0.00859089 17.4703 0.000202919 17.5096 0 17.5494L0 30.4224C0 30.5017 0.0335394 30.5779 0.0936053 30.634C0.153671 30.6901 0.23508 30.7218 0.319843 30.7218H14.0774C14.1624 30.7218 14.2436 30.6901 14.3039 30.634C14.3332 30.6071 14.3566 30.5744 14.3727 30.538C14.3888 30.5016 14.3973 30.4622 14.3975 30.4224V17.5494C14.3975 17.4701 14.364 17.3939 14.3039 17.3378C14.2422 17.281 14.1613 17.2496 14.0774 17.25ZM9.59835 25.9318C9.59835 26.0111 9.56481 26.0873 9.50444 26.1434C9.44292 26.2002 9.36221 26.2315 9.27851 26.2312H5.11902C5.03426 26.2312 4.95285 26.1995 4.89278 26.1434C4.86349 26.1165 4.84006 26.0838 4.82396 26.0474C4.80785 26.011 4.79942 25.9716 4.79918 25.9318V22.04C4.79918 21.9608 4.83272 21.8845 4.89278 21.8284C4.95285 21.772 5.03426 21.7406 5.11902 21.7406H9.27851C9.36327 21.7406 9.44468 21.772 9.50444 21.8284C9.5338 21.8553 9.5573 21.888 9.57346 21.9244C9.58962 21.9609 9.59809 22.0002 9.59835 22.04V25.9318ZM42.8785 21.7412H38.719C38.5422 21.7412 38.3989 21.8754 38.3989 22.0406V25.9324C38.3989 26.0977 38.5422 26.2318 38.719 26.2318H42.8782C43.0551 26.2318 43.1984 26.0977 43.1984 25.9324V22.0406C43.1984 21.8751 43.0551 21.7412 42.8782 21.7412H42.8785ZM38.0803 17.25H33.9211C33.7442 17.25 33.6009 17.3842 33.6009 17.5497V21.4415C33.6009 21.6068 33.7442 21.7409 33.9211 21.7409H38.08C38.2568 21.7409 38.4001 21.6068 38.4001 21.4415V17.5497C38.4001 17.3842 38.2568 17.2503 38.08 17.2503L38.0803 17.25ZM47.6802 17.25H43.5207C43.3441 17.25 43.2008 17.3842 43.2008 17.5497V21.4415C43.2008 21.6068 43.3441 21.7409 43.521 21.7409H47.6798C47.8567 21.7409 48 21.6068 48 21.4415V17.5497C48 17.3842 47.8567 17.2503 47.6798 17.2503L47.6802 17.25ZM38.0803 26.2315H33.9211C33.7442 26.2315 33.6009 26.3657 33.6009 26.531V30.423C33.6009 30.5883 33.7442 30.7222 33.9211 30.7222H38.08C38.2568 30.7222 38.4001 30.588 38.4001 30.423V26.531C38.4001 26.3657 38.2571 26.2315 38.0803 26.2315ZM47.6802 26.2315H43.5207C43.3441 26.2315 43.2008 26.3657 43.2008 26.531V30.423C43.2008 30.5883 43.3441 30.7222 43.521 30.7222H47.6798C47.8567 30.7222 48 30.588 48 30.423V26.531C48 26.3657 47.8567 26.2315 47.6798 26.2315H47.6802ZM30.8757 17.25H26.7168C26.54 17.25 26.3967 17.3842 26.3967 17.5497V21.4415C26.3967 21.6068 26.54 21.7409 26.7168 21.7409H30.8757C31.0526 21.7409 31.1959 21.6068 31.1959 21.4415V17.5497C31.1959 17.3842 31.0526 17.2503 30.8757 17.2503V17.25ZM30.8757 26.2315H26.7168C26.54 26.2315 26.3967 26.3657 26.3967 26.531V30.423C26.3967 30.5883 26.54 30.7222 26.7168 30.7222H30.8757C31.0526 30.7222 31.1959 30.588 31.1959 30.423V26.531C31.1959 26.3657 31.0526 26.2315 30.8757 26.2315ZM26.3955 22.0367C26.3955 21.9574 26.3613 21.8812 26.3016 21.8248C26.2399 21.7681 26.1591 21.7368 26.0753 21.7373H21.596V17.5494C21.596 17.4701 21.5625 17.3939 21.5024 17.3378C21.4408 17.281 21.3599 17.2496 21.2761 17.25H17.117C17.0319 17.25 16.9505 17.2814 16.8904 17.3378C16.8611 17.3648 16.8377 17.3975 16.8216 17.4339C16.8055 17.4703 16.7971 17.5096 16.7968 17.5494V30.4157C16.7968 30.495 16.8304 30.5712 16.8904 30.6273C16.9505 30.6834 17.0319 30.7151 17.117 30.7151H21.2758C21.3609 30.7151 21.4423 30.6834 21.5024 30.6273C21.5625 30.5712 21.596 30.495 21.596 30.4157V26.2279H26.075C26.1601 26.2279 26.2415 26.1962 26.3016 26.1401C26.3308 26.1131 26.3543 26.0804 26.3704 26.044C26.3865 26.0076 26.3949 25.9683 26.3952 25.9285L26.3955 22.0367Z" fill="white"/>
</svg>
