<svg width="32" height="32" viewBox="0 0 32 32" fill="none" xmlns="http://www.w3.org/2000/svg">
<path d="M24.7067 16.71L18.9867 22.43C18.6 22.8167 17.96 22.8167 17.5733 22.43C17.1867 22.0433 17.1867 21.4033 17.5733 21.0167L21.5867 17.0033L8 17.0033C7.45334 17.0033 7 16.55 7 16.0033C7 15.4567 7.45334 15.0033 8 15.0033L21.5867 15.0033L17.5733 10.99C17.1867 10.6033 17.1867 9.96332 17.5733 9.57666C17.7733 9.37666 18.0267 9.28332 18.28 9.28332C18.5333 9.28332 18.8 9.38999 18.9867 9.57666L24.7067 15.2967C24.8933 15.4833 25 15.7367 25 16.0033C25 16.27 24.8933 16.5233 24.7067 16.71Z" fill="#747474"/>
</svg>
