<svg width="20" height="20" viewBox="0 0 20 20" fill="none" xmlns="http://www.w3.org/2000/svg">
<path opacity="0.4" d="M9.17484 16.6833C13.3216 16.6833 16.6832 13.3217 16.6832 9.17499C16.6832 5.02825 13.3216 1.66666 9.17484 1.66666C5.0281 1.66666 1.6665 5.02825 1.6665 9.17499C1.6665 13.3217 5.0281 16.6833 9.17484 16.6833Z" fill="#747474"/>
<path d="M18.3252 15.7917C18.0502 15.2833 17.4669 15 16.6835 15C16.0919 15 15.5835 15.2417 15.2835 15.6583C14.9835 16.075 14.9169 16.6333 15.1002 17.1917C15.4585 18.275 16.0835 18.5167 16.4252 18.5583C16.4752 18.5667 16.5252 18.5667 16.5835 18.5667C16.9502 18.5667 17.5169 18.4083 18.0669 17.5833C18.5085 16.9417 18.5919 16.3 18.3252 15.7917Z" fill="#747474"/>
</svg>
