<svg width="44" height="44" viewBox="0 0 44 44" fill="none" xmlns="http://www.w3.org/2000/svg">
<g clip-path="url(#clip0_344_1689)">
<path fill-rule="evenodd" clip-rule="evenodd" d="M34 22C34 28.6274 28.6274 34 22 34C15.3726 34 10 28.6274 10 22C10 15.3726 15.3726 10 22 10C28.6274 10 34 15.3726 34 22ZM22.43 18.8589C21.2628 19.3444 18.9301 20.3492 15.4319 21.8733C14.8638 22.0992 14.5663 22.3202 14.5392 22.5363C14.4934 22.9015 14.9507 23.0453 15.5735 23.2411C15.6582 23.2678 15.746 23.2954 15.8359 23.3246C16.4486 23.5238 17.2728 23.7568 17.7013 23.766C18.0899 23.7744 18.5237 23.6142 19.0026 23.2853C22.2712 21.079 23.9584 19.9638 24.0643 19.9398C24.139 19.9228 24.2426 19.9015 24.3128 19.9638C24.3829 20.0262 24.376 20.1443 24.3686 20.176C24.3233 20.3691 22.5281 22.0381 21.5991 22.9018C21.3095 23.171 21.1041 23.362 21.0621 23.4056C20.968 23.5034 20.8721 23.5958 20.78 23.6846C20.2108 24.2333 19.7839 24.6448 20.8036 25.3168C21.2936 25.6397 21.6858 25.9067 22.0769 26.1731C22.5042 26.4641 22.9303 26.7543 23.4816 27.1157C23.6221 27.2078 23.7562 27.3034 23.8869 27.3965C24.3841 27.751 24.8307 28.0694 25.3826 28.0186C25.7032 27.9891 26.0345 27.6876 26.2027 26.7884C26.6002 24.6632 27.3816 20.0585 27.5622 18.161C27.578 17.9947 27.5581 17.782 27.5422 17.6886C27.5262 17.5952 27.4928 17.4621 27.3714 17.3636C27.2276 17.2469 27.0056 17.2223 26.9064 17.2241C26.455 17.232 25.7626 17.4728 22.43 18.8589Z" fill="#4F4F4F"/>
</g>
<defs>
<clipPath id="clip0_344_1689">
<rect width="24" height="24" fill="white" transform="translate(10 10)"/>
</clipPath>
</defs>
</svg>
