<svg width="32" height="32" viewBox="0 0 32 32" fill="none" xmlns="http://www.w3.org/2000/svg">
<path d="M25.7076 24.2925C25.8005 24.3854 25.8742 24.4957 25.9245 24.6171C25.9747 24.7385 26.0006 24.8686 26.0006 25C26.0006 25.1314 25.9747 25.2615 25.9245 25.3829C25.8742 25.5043 25.8005 25.6146 25.7076 25.7075C25.6147 25.8004 25.5044 25.8741 25.383 25.9244C25.2616 25.9747 25.1315 26.0006 25.0001 26.0006C24.8687 26.0006 24.7386 25.9747 24.6172 25.9244C24.4958 25.8741 24.3855 25.8004 24.2926 25.7075L16.0001 17.4137L7.70757 25.7075C7.51993 25.8951 7.26543 26.0006 7.00007 26.0006C6.7347 26.0006 6.48021 25.8951 6.29257 25.7075C6.10493 25.5199 5.99951 25.2654 5.99951 25C5.99951 24.7346 6.10493 24.4801 6.29257 24.2925L14.5863 16L6.29257 7.7075C6.10493 7.51986 5.99951 7.26536 5.99951 7C5.99951 6.73463 6.10493 6.48014 6.29257 6.2925C6.48021 6.10486 6.7347 5.99944 7.00007 5.99944C7.26543 5.99944 7.51993 6.10486 7.70757 6.2925L16.0001 14.5862L24.2926 6.2925C24.4802 6.10486 24.7347 5.99944 25.0001 5.99944C25.2654 5.99944 25.5199 6.10486 25.7076 6.2925C25.8952 6.48014 26.0006 6.73463 26.0006 7C26.0006 7.26536 25.8952 7.51986 25.7076 7.7075L17.4138 16L25.7076 24.2925Z" fill="white"/>
</svg>
