<svg width="16" height="16" viewBox="0 0 16 16" fill="none" xmlns="http://www.w3.org/2000/svg">
<path opacity="0.4" d="M7.99935 1.33335C4.31745 1.33335 1.33268 4.31812 1.33268 8.00002C1.33268 11.6819 4.31745 14.6667 7.99935 14.6667C11.6812 14.6667 14.666 11.6819 14.666 8.00002C14.666 4.31812 11.6812 1.33335 7.99935 1.33335Z" fill="#747474"/>
<path d="M8 6.83335C7.72667 6.83335 7.5 7.06002 7.5 7.33335L7.5 10.6667C7.5 10.94 7.72667 11.1667 8 11.1667C8.27333 11.1667 8.5 10.94 8.5 10.6667L8.5 7.33335C8.5 7.06002 8.27333 6.83335 8 6.83335Z" fill="#747474"/>
<path d="M7.38602 5.58664C7.41935 5.66664 7.46602 5.73998 7.52602 5.80664C7.59268 5.86664 7.66602 5.91331 7.74602 5.94664C7.90602 6.01331 8.09268 6.01331 8.25268 5.94664C8.33268 5.91331 8.40602 5.86664 8.47268 5.80664C8.53268 5.73998 8.57935 5.66664 8.61268 5.58664C8.64602 5.50664 8.66602 5.41998 8.66602 5.33331C8.66602 5.24664 8.64602 5.15998 8.61268 5.07998C8.57935 4.99331 8.53268 4.92664 8.47268 4.85998C8.40602 4.79998 8.33268 4.75331 8.25268 4.71998C8.17268 4.68664 8.08602 4.66664 7.99935 4.66664C7.91268 4.66664 7.82602 4.68664 7.74602 4.71998C7.66602 4.75331 7.59268 4.79998 7.52602 4.85998C7.46602 4.92664 7.41935 4.99331 7.38602 5.07998C7.35268 5.15998 7.33268 5.24664 7.33268 5.33331C7.33268 5.41998 7.35268 5.50664 7.38602 5.58664Z" fill="#747474"/>
</svg>
