<svg width="48" height="48" viewBox="0 0 48 48" fill="none" xmlns="http://www.w3.org/2000/svg">
<path d="M23.8603 2.42633C31.3191 8.20503 39.8729 7.84843 42.3165 7.84843C41.7828 40.7149 37.7093 36.3363 23.8603 45.5518C10.0113 36.3375 5.96296 40.7149 5.43164 7.84843C7.84651 7.84843 16.4015 8.20503 23.8603 2.42633Z" fill="white"/>
<path d="M23.8605 2.42633L24.9375 1.03461C24.6292 0.796092 24.2504 0.666687 23.8605 0.666687C23.4707 0.666687 23.0919 0.796092 22.7835 1.03461L23.8605 2.42633ZM42.3167 7.84843L44.0782 7.87714C44.0819 7.64352 44.039 7.4115 43.9521 7.1946C43.8652 6.9777 43.736 6.78025 43.5721 6.61375C43.4082 6.44726 43.2127 6.31504 42.9972 6.2248C42.7817 6.13456 42.5504 6.0881 42.3167 6.08813V7.84843ZM23.8605 45.5518L22.8852 47.0177C23.174 47.2103 23.5134 47.3131 23.8605 47.3131C24.2076 47.3131 24.547 47.2103 24.8358 47.0177L23.8605 45.5518ZM5.43186 7.84843V6.08813C5.1983 6.08826 4.9671 6.13484 4.75171 6.22515C4.53632 6.31546 4.34104 6.4477 4.17724 6.61418C4.01343 6.78066 3.88436 6.97805 3.79755 7.19488C3.71074 7.4117 3.66791 7.64362 3.67156 7.87714L5.43186 7.84843ZM22.7835 3.81805C30.7737 10.0084 39.9162 9.60992 42.3179 9.60992V6.08813C39.8336 6.08813 31.8674 6.40166 24.9399 1.03461L22.7835 3.81805ZM40.5576 7.81971C40.426 15.9977 40.0789 21.7669 39.4172 26.0402C38.7626 30.2692 37.828 32.8025 36.6242 34.5832C35.4048 36.432 33.8718 37.5293 31.6089 38.884C29.3221 40.253 26.4346 41.7285 22.8864 44.0859L24.837 47.0177C28.2128 44.768 31.0274 43.3344 33.4171 41.9056C35.826 40.4612 37.9441 38.872 39.5416 36.5553C41.1547 34.1691 42.203 31.0602 42.8923 26.5787C43.5768 22.1414 43.9406 16.1329 44.0758 7.87714L40.5576 7.81971ZM24.8358 44.0859C21.2877 41.7285 18.4013 40.2565 16.1181 38.884C13.854 37.5305 12.327 36.4332 11.1112 34.5844C9.91457 32.8049 8.97878 30.2764 8.32659 26.0414C7.66603 21.7669 7.32139 15.9977 7.18856 7.81971L3.66797 7.87714C3.80319 16.1341 4.16459 22.1414 4.84669 26.5775C5.53716 31.059 6.58305 34.1679 8.19735 36.5541C9.79011 38.8708 11.907 40.4612 14.3135 41.9056C16.6997 43.3332 19.513 44.768 22.89 47.0177L24.8358 44.0859ZM5.42827 9.60992C7.80604 9.60992 16.9486 10.0084 24.9339 3.81805L22.7799 1.03461C15.8512 6.40166 7.88502 6.08813 5.42827 6.08813V9.60992Z" fill="#3375BB"/>
</svg>
