<svg width="32" height="33" viewBox="0 0 32 33" fill="none" xmlns="http://www.w3.org/2000/svg">
<path opacity="0.4" d="M24.054 18.5667C23.494 19.1133 23.174 19.9 23.254 20.74C23.374 22.18 24.694 23.2333 26.134 23.2333H28.6673V24.82C28.6673 27.58 26.414 29.8333 23.654 29.8333H8.34732C5.58732 29.8333 3.33398 27.58 3.33398 24.82V15.8467C3.33398 13.0867 5.58732 10.8333 8.34732 10.8333H23.654C26.414 10.8333 28.6673 13.0867 28.6673 15.8467V17.7667H25.974C25.2273 17.7667 24.5473 18.06 24.054 18.5667Z" fill="#927BF5"/>
<path d="M19.8007 5.76668V10.8333H8.34732C5.58732 10.8333 3.33398 13.0867 3.33398 15.8467V10.9534C3.33398 9.3667 4.30732 7.95331 5.78732 7.39331L16.374 3.39331C18.0273 2.77997 19.8007 3.99335 19.8007 5.76668Z" fill="#927BF5"/>
<path d="M30.0791 19.1266V21.8734C30.0791 22.6067 29.4924 23.2067 28.7457 23.2333H26.1324C24.6924 23.2333 23.3724 22.18 23.2524 20.74C23.1724 19.9 23.4924 19.1133 24.0524 18.5667C24.5457 18.06 25.2257 17.7667 25.9724 17.7667H28.7457C29.4924 17.7934 30.0791 18.3933 30.0791 19.1266Z" fill="#927BF5"/>
<path d="M18.6673 17.5H9.33398C8.78732 17.5 8.33398 17.0467 8.33398 16.5C8.33398 15.9533 8.78732 15.5 9.33398 15.5H18.6673C19.214 15.5 19.6673 15.9533 19.6673 16.5C19.6673 17.0467 19.214 17.5 18.6673 17.5Z" fill="#927BF5"/>
</svg>
