<svg width="44" height="44" viewBox="0 0 44 44" fill="none" xmlns="http://www.w3.org/2000/svg">
<g clip-path="url(#clip0_344_1693)">
<path fill-rule="evenodd" clip-rule="evenodd" d="M32.7466 14.8341C33.119 15.2089 33.3864 15.6749 33.5221 16.1855C34.0239 18.07 34.0239 22 34.0239 22C34.0239 22 34.0239 25.93 33.5221 27.8146C33.3864 28.3251 33.119 28.7911 32.7466 29.1659C32.3743 29.5407 31.91 29.8111 31.4003 29.95C29.5239 30.4546 22.0239 30.4546 22.0239 30.4546C22.0239 30.4546 14.5239 30.4546 12.6476 29.95C12.1379 29.8111 11.6736 29.5407 11.3012 29.1659C10.9288 28.7911 10.6614 28.3251 10.5257 27.8146C10.0239 25.93 10.0239 22 10.0239 22C10.0239 22 10.0239 18.07 10.5257 16.1855C10.6614 15.6749 10.9288 15.2089 11.3012 14.8341C11.6736 14.4594 12.1379 14.189 12.6476 14.05C14.5239 13.5455 22.0239 13.5455 22.0239 13.5455C22.0239 13.5455 29.5239 13.5455 31.4003 14.05C31.91 14.189 32.3743 14.4594 32.7466 14.8341ZM25.8421 22L19.5694 18.4314V25.5687L25.8421 22Z" fill="#4F4F4F"/>
</g>
<defs>
<clipPath id="clip0_344_1693">
<rect width="24" height="24" fill="white" transform="translate(10 10)"/>
</clipPath>
</defs>
</svg>
